<svg width="100" height="100" viewBox="0 0 100 100" fill="none" xmlns="http://www.w3.org/2000/svg">
<path d="M50.1433 64.1308H62.4936L65.8169 60.092L63.8996 57.752L61.0449 60.872H57.1251L63.8996 52.4974L73.2731 64.1308H85.7143L74.1678 50.2395L85.7143 36H73.2731L68.0324 42.5217L62.4936 36H50.1433L59.7241 47.6121L61.8544 45.0669L57.1251 39.1965H61.0449L68.0324 47.6121L75.1052 39.1965H78.8546L69.9071 50.2395L78.8546 60.872H75.1052L63.8996 47.6121L50.1433 64.1308Z" fill="white" stroke="white" stroke-width="0.79" stroke-linecap="round"/>
<path d="M13 36V64.0585H22.615V50.6277L32.7361 39.1472H36.5545C34.5073 41.5519 28.3657 48.766 28.3657 48.766L38.8088 60.9557H34.5763L25.8814 50.9823V55.9911L33.0122 64.0585H45.6635L32.5061 49.1206L37.7094 43.1847L44.0073 36H31.54L19.4407 49.3839V60.9557H16.1283V39.1472H19.4407V44.422L22.431 41.0975V36H13Z" fill="white" stroke="white" stroke-width="0.79" stroke-linecap="round"/>
</svg>
